{
    "asset" : {
        "generator" : "Khronos glTF Blender I/O v3.2.40",
        "version" : "2.0"
    },
    "scene" : 0,
    "scenes" : [
        {
            "name" : "Scene",
            "nodes" : [
                0
            ]
        }
    ],
    "nodes" : [
        {
            "mesh" : 0,
            "name" : "trashcan.001"
        }
    ],
    "materials" : [
        {
            "doubleSided" : true,
            "name" : "trashcan.001",
            "pbrMetallicRoughness" : {
                "baseColorFactor" : [
                    0.5457239151000977,
                    0.5711243748664856,
                    0.7991029024124146,
                    1
                ],
                "roughnessFactor" : 0.28863635659217834
            }
        }
    ],
    "meshes" : [
        {
            "name" : "Cylinder.003",
            "primitives" : [
                {
                    "attributes" : {
                        "POSITION" : 0,
                        "NORMAL" : 1,
                        "TEXCOORD_0" : 2
                    },
                    "indices" : 3,
                    "material" : 0
                }
            ]
        }
    ],
    "accessors" : [
        {
            "bufferView" : 0,
            "componentType" : 5126,
            "count" : 318,
            "max" : [
                0.9463682174682617,
                0.9905920028686523,
                1.6256067752838135
            ],
            "min" : [
                -0.9463735818862915,
                -0.9906110763549805,
                -1.376523494720459
            ],
            "type" : "VEC3"
        },
        {
            "bufferView" : 1,
            "componentType" : 5126,
            "count" : 318,
            "type" : "VEC3"
        },
        {
            "bufferView" : 2,
            "componentType" : 5126,
            "count" : 318,
            "type" : "VEC2"
        },
        {
            "bufferView" : 3,
            "componentType" : 5123,
            "count" : 1332,
            "type" : "SCALAR"
        }
    ],
    "bufferViews" : [
        {
            "buffer" : 0,
            "byteLength" : 3816,
            "byteOffset" : 0
        },
        {
            "buffer" : 0,
            "byteLength" : 3816,
            "byteOffset" : 3816
        },
        {
            "buffer" : 0,
            "byteLength" : 2544,
            "byteOffset" : 7632
        },
        {
            "buffer" : 0,
            "byteLength" : 2664,
            "byteOffset" : 10176
        }
    ],
    "buffers" : [
        {
            "byteLength" : 12840,
            "uri" : "data:application/octet-stream;base64,"
        }
    ]
}
